<svg width="7730" height="5046" viewBox="0 0 7730 5046" fill="none" xmlns="http://www.w3.org/2000/svg">
<path d="M664.969 1968V218H1519.97C1739.97 218 1904.97 259.667 2014.97 343C2126.64 426.333 2182.47 536.333 2182.47 673C2182.47 764.667 2159.97 844.667 2114.97 913C2069.97 979.667 2008.3 1031.33 1929.97 1068C1851.64 1104.67 1761.64 1123 1659.97 1123L1707.47 1020.5C1817.47 1020.5 1914.97 1038.83 1999.97 1075.5C2084.97 1110.5 2150.8 1163 2197.47 1233C2245.8 1303 2269.97 1388.83 2269.97 1490.5C2269.97 1640.5 2210.8 1758 2092.47 1843C1974.14 1926.33 1799.97 1968 1569.97 1968H664.969ZM1067.47 1663H1539.97C1644.97 1663 1724.14 1646.33 1777.47 1613C1832.47 1578 1859.97 1523 1859.97 1448C1859.97 1374.67 1832.47 1320.5 1777.47 1285.5C1724.14 1248.83 1644.97 1230.5 1539.97 1230.5H1037.47V935.5H1469.97C1568.3 935.5 1643.3 918.833 1694.97 885.5C1748.3 850.5 1774.97 798 1774.97 728C1774.97 659.667 1748.3 608.833 1694.97 575.5C1643.3 540.5 1568.3 523 1469.97 523H1067.47V1663ZM2549.09 1968V623H2921.59V1003L2869.09 893C2909.09 798 2973.26 726.333 3061.59 678C3149.92 628 3257.42 603 3384.09 603V963C3367.42 961.333 3352.42 960.5 3339.09 960.5C3325.76 958.833 3311.59 958 3296.59 958C3189.92 958 3103.26 988.833 3036.59 1050.5C2971.59 1110.5 2939.09 1204.67 2939.09 1333V1968H2549.09ZM4353.09 1968V1705.5L4328.09 1648V1178C4328.09 1094.67 4302.26 1029.67 4250.59 983C4200.59 936.333 4123.09 913 4018.09 913C3946.43 913 3875.59 924.667 3805.59 948C3737.26 969.667 3678.93 999.667 3630.59 1038L3490.59 765.5C3563.93 713.833 3652.26 673.833 3755.59 645.5C3858.93 617.167 3963.93 603 4070.59 603C4275.59 603 4434.76 651.333 4548.09 748C4661.43 844.667 4718.09 995.5 4718.09 1200.5V1968H4353.09ZM3943.09 1988C3838.09 1988 3748.09 1970.5 3673.09 1935.5C3598.09 1898.83 3540.59 1849.67 3500.59 1788C3460.59 1726.33 3440.59 1657.17 3440.59 1580.5C3440.59 1500.5 3459.76 1430.5 3498.09 1370.5C3538.09 1310.5 3600.59 1263.83 3685.59 1230.5C3770.59 1195.5 3881.43 1178 4018.09 1178H4375.59V1405.5H4060.59C3968.93 1405.5 3905.59 1420.5 3870.59 1450.5C3837.26 1480.5 3820.59 1518 3820.59 1563C3820.59 1613 3839.76 1653 3878.09 1683C3918.09 1711.33 3972.26 1725.5 4040.59 1725.5C4105.59 1725.5 4163.93 1710.5 4215.59 1680.5C4267.26 1648.83 4304.76 1603 4328.09 1543L4388.09 1723C4359.76 1809.67 4308.09 1875.5 4233.09 1920.5C4158.09 1965.5 4061.43 1988 3943.09 1988ZM5071.06 1968V623H5461.06V1968H5071.06ZM5266.06 435.5C5194.4 435.5 5136.06 414.667 5091.06 373C5046.06 331.333 5023.56 279.667 5023.56 218C5023.56 156.333 5046.06 104.667 5091.06 62.9999C5136.06 21.3332 5194.4 0.49985 5266.06 0.49985C5337.73 0.49985 5396.06 20.4999 5441.06 60.5C5486.06 98.8333 5508.56 148.833 5508.56 210.5C5508.56 275.5 5486.06 329.667 5441.06 373C5397.73 414.667 5339.4 435.5 5266.06 435.5ZM6640.52 603C6747.18 603 6842.18 624.667 6925.52 668C7010.52 709.667 7077.18 774.667 7125.52 863C7173.85 949.667 7198.02 1061.33 7198.02 1198V1968H6808.02V1258C6808.02 1149.67 6783.85 1069.67 6735.52 1018C6688.85 966.333 6622.18 940.5 6535.52 940.5C6473.85 940.5 6418.02 953.833 6368.02 980.5C6319.68 1005.5 6281.35 1044.67 6253.02 1098C6226.35 1151.33 6213.02 1219.67 6213.02 1303V1968H5823.02V623H6195.52V995.5L6125.52 883C6173.85 793 6243.02 723.833 6333.02 675.5C6423.02 627.167 6525.52 603 6640.52 603Z" fill="#1E1E1E"/>
<path d="M712.625 5046C572.625 5046 438.458 5027.67 310.125 4991C181.792 4952.67 78.4583 4903.5 0.125002 4843.5L137.625 4538.5C212.625 4591.83 300.958 4636 402.625 4671C505.958 4704.33 610.125 4721 715.125 4721C795.125 4721 859.292 4713.5 907.625 4698.5C957.625 4681.83 994.292 4659.33 1017.63 4631C1040.96 4602.67 1052.63 4570.17 1052.63 4533.5C1052.63 4486.83 1034.29 4450.17 997.625 4423.5C960.958 4395.17 912.625 4372.67 852.625 4356C792.625 4337.67 725.958 4321 652.625 4306C580.958 4289.33 508.458 4269.33 435.125 4246C363.458 4222.67 297.625 4192.67 237.625 4156C177.625 4119.33 128.458 4071 90.125 4011C53.4583 3951 35.125 3874.33 35.125 3781C35.125 3681 61.7917 3590.17 115.125 3508.5C170.125 3425.17 251.792 3359.33 360.125 3311C470.125 3261 607.625 3236 772.625 3236C882.625 3236 990.958 3249.33 1097.63 3276C1204.29 3301 1298.46 3339.33 1380.13 3391L1255.13 3698.5C1173.46 3651.83 1091.79 3617.67 1010.13 3596C928.458 3572.67 848.458 3561 770.125 3561C691.792 3561 627.625 3570.17 577.625 3588.5C527.625 3606.83 491.792 3631 470.125 3661C448.458 3689.33 437.625 3722.67 437.625 3761C437.625 3806 455.958 3842.67 492.625 3871C529.292 3897.67 577.625 3919.33 637.625 3936C697.625 3952.67 763.458 3969.33 835.125 3986C908.458 4002.67 980.958 4021.83 1052.63 4043.5C1125.96 4065.17 1192.63 4094.33 1252.63 4131C1312.63 4167.67 1360.96 4216 1397.63 4276C1435.96 4336 1455.13 4411.83 1455.13 4503.5C1455.13 4601.83 1427.63 4691.83 1372.63 4773.5C1317.63 4855.17 1235.13 4921 1125.13 4971C1016.79 5021 879.292 5046 712.625 5046ZM2254.36 5036C2096.03 5036 1972.7 4996 1884.36 4916C1796.03 4834.33 1751.86 4713.5 1751.86 4553.5V3373.5H2141.86V4548.5C2141.86 4605.17 2156.86 4649.33 2186.86 4681C2216.86 4711 2257.7 4726 2309.36 4726C2371.03 4726 2423.53 4709.33 2466.86 4676L2571.86 4951C2531.86 4979.33 2483.53 5001 2426.86 5016C2371.86 5029.33 2314.36 5036 2254.36 5036ZM1544.36 4001V3701H2476.86V4001H1544.36ZM3389.29 5036C3245.95 5036 3118.45 5006 3006.79 4946C2896.79 4886 2809.29 4804.33 2744.29 4701C2680.95 4596 2649.29 4476.83 2649.29 4343.5C2649.29 4208.5 2680.95 4089.33 2744.29 3986C2809.29 3881 2896.79 3799.33 3006.79 3741C3118.45 3681 3245.95 3651 3389.29 3651C3530.95 3651 3657.62 3681 3769.29 3741C3880.95 3799.33 3968.45 3880.17 4031.79 3983.5C4095.12 4086.83 4126.79 4206.83 4126.79 4343.5C4126.79 4476.83 4095.12 4596 4031.79 4701C3968.45 4804.33 3880.95 4886 3769.29 4946C3657.62 5006 3530.95 5036 3389.29 5036ZM3389.29 4716C3454.29 4716 3512.62 4701 3564.29 4671C3615.95 4641 3656.79 4598.5 3686.79 4543.5C3716.79 4486.83 3731.79 4420.17 3731.79 4343.5C3731.79 4265.17 3716.79 4198.5 3686.79 4143.5C3656.79 4088.5 3615.95 4046 3564.29 4016C3512.62 3986 3454.29 3971 3389.29 3971C3324.29 3971 3265.95 3986 3214.29 4016C3162.62 4046 3120.95 4088.5 3089.29 4143.5C3059.29 4198.5 3044.29 4265.17 3044.29 4343.5C3044.29 4420.17 3059.29 4486.83 3089.29 4543.5C3120.95 4598.5 3162.62 4641 3214.29 4671C3265.95 4701 3324.29 4716 3389.29 4716ZM4387.47 5016V3671H4759.97V4051L4707.47 3941C4747.47 3846 4811.64 3774.33 4899.97 3726C4988.3 3676 5095.8 3651 5222.47 3651V4011C5205.8 4009.33 5190.8 4008.5 5177.47 4008.5C5164.14 4006.83 5149.97 4006 5134.97 4006C5028.3 4006 4941.64 4036.83 4874.97 4098.5C4809.97 4158.5 4777.47 4252.67 4777.47 4381V5016H4387.47ZM7179.3 3651C7285.97 3651 7380.14 3672.67 7461.8 3716C7545.14 3757.67 7610.14 3822.67 7656.8 3911C7705.14 3997.67 7729.3 4109.33 7729.3 4246V5016H7339.3V4306C7339.3 4197.67 7316.8 4117.67 7271.8 4066C7226.8 4014.33 7163.47 3988.5 7081.8 3988.5C7025.14 3988.5 6974.3 4001.83 6929.3 4028.5C6884.3 4053.5 6849.3 4091.83 6824.3 4143.5C6799.3 4195.17 6786.8 4261 6786.8 4341V5016H6396.8V4306C6396.8 4197.67 6374.3 4117.67 6329.3 4066C6285.97 4014.33 6223.47 3988.5 6141.8 3988.5C6085.14 3988.5 6034.3 4001.83 5989.3 4028.5C5944.3 4053.5 5909.3 4091.83 5884.3 4143.5C5859.3 4195.17 5846.8 4261 5846.8 4341V5016H5456.8V3671H5829.3V4038.5L5759.3 3931C5805.97 3839.33 5871.8 3770.17 5956.8 3723.5C6043.47 3675.17 6141.8 3651 6251.8 3651C6375.14 3651 6482.64 3682.67 6574.3 3746C6667.64 3807.67 6729.3 3902.67 6759.3 4031L6621.8 3993.5C6666.8 3888.5 6738.47 3805.17 6836.8 3743.5C6936.8 3681.83 7050.97 3651 7179.3 3651Z" fill="#4460EF"/>
</svg>
